<svg width="849" height="1024" viewBox="0 0 849 1024" fill="none" xmlns="http://www.w3.org/2000/svg">
<path d="M884.609 -189.4L888.841 1250.59L509.843 1251.71L505.61 -188.286L884.609 -189.4ZM-5.72107e-05 -189.4L209 1250.59L509.843 1251.71L505.61 -188.286L-5.72107e-05 -189.4Z" fill="#E8F1FF"/>
<path fill-rule="evenodd" clip-rule="evenodd" d="M884.609 -189.4L888.841 1250.59L509.843 1251.71L505.61 -188.286L884.609 -189.4ZM-5.72107e-05 -189.4L209 1250.59L509.843 1251.71L505.61 -188.286L-5.72107e-05 -189.4Z" fill="#E8F1FF"/>
<g clip-path="url(#clip0)">
<path d="M791.385 294L400.954 294C399.467 294.001 398.041 294.587 396.99 295.628C395.938 296.669 395.347 298.081 395.346 299.553L395.346 439.279L489.834 439.279C492.392 439.282 494.844 440.29 496.653 442.081C498.461 443.871 499.479 446.299 499.482 448.832L499.482 567.046L791.385 567.046C792.196 567.046 792.997 566.872 793.733 566.535C794.47 566.199 795.123 565.708 795.65 565.097C795.694 565.049 795.735 564.998 795.772 564.944C796.106 564.539 796.378 564.086 796.576 563.601C796.858 562.933 797.002 562.216 797 561.493L797 299.553C796.998 298.08 796.406 296.667 795.353 295.626C794.3 294.585 792.873 294 791.385 294V294Z" fill="#F2F2F2"/>
<path d="M796.194 316.258L396.144 316.258L396.144 317.845L796.194 317.845L796.194 316.258Z" fill="#CCCCCC"/>
<path d="M409.773 310.67C412.429 310.67 414.583 308.538 414.583 305.907C414.583 303.277 412.429 301.145 409.773 301.145C407.116 301.145 404.962 303.277 404.962 305.907C404.962 308.538 407.116 310.67 409.773 310.67Z" fill="#CCCCCC"/>
<path d="M423.602 310.67C426.259 310.67 428.412 308.538 428.412 305.907C428.412 303.277 426.259 301.145 423.602 301.145C420.945 301.145 418.792 303.277 418.792 305.907C418.792 308.538 420.945 310.67 423.602 310.67Z" fill="#CCCCCC"/>
<path d="M437.432 310.67C440.088 310.67 442.242 308.538 442.242 305.907C442.242 303.277 440.088 301.145 437.432 301.145C434.775 301.145 432.621 303.277 432.621 305.907C432.621 308.538 434.775 310.67 437.432 310.67Z" fill="#CCCCCC"/>
<path d="M696.511 350.92L495.828 350.92C493.611 350.92 491.484 351.792 489.916 353.344C488.347 354.897 487.467 357.003 487.467 359.198C487.467 361.394 488.347 363.5 489.916 365.052C491.484 366.605 493.611 367.477 495.828 367.477L696.511 367.477C698.728 367.477 700.855 366.605 702.423 365.052C703.992 363.5 704.872 361.394 704.872 359.198C704.872 357.003 703.992 354.897 702.423 353.344C700.855 351.792 698.728 350.92 696.511 350.92V350.92ZM696.511 366.203L495.828 366.203C493.952 366.203 492.152 365.465 490.825 364.152C489.498 362.838 488.753 361.056 488.753 359.198C488.753 357.34 489.498 355.559 490.825 354.245C492.152 352.931 493.952 352.193 495.828 352.193L696.511 352.193C698.387 352.193 700.187 352.931 701.514 354.245C702.841 355.559 703.586 357.34 703.586 359.198C703.586 361.056 702.841 362.838 701.514 364.152C700.187 365.465 698.387 366.203 696.511 366.203Z" fill="#CCCCCC"/>
<path d="M757.919 416.876L557.236 416.876C555.018 416.876 552.892 417.748 551.323 419.301C549.755 420.853 548.874 422.959 548.874 425.155C548.874 427.35 549.755 429.456 551.323 431.008C552.892 432.561 555.018 433.433 557.236 433.433L757.919 433.433C760.136 433.433 762.263 432.561 763.831 431.008C765.399 429.456 766.28 427.35 766.28 425.155C766.28 422.959 765.399 420.853 763.831 419.301C762.263 417.748 760.136 416.876 757.919 416.876V416.876Z" fill="white"/>
<path d="M757.919 447.443L557.236 447.443C555.018 447.443 552.892 448.316 551.323 449.868C549.755 451.421 548.874 453.527 548.874 455.722C548.874 457.918 549.755 460.024 551.323 461.576C552.892 463.129 555.018 464.001 557.236 464.001L757.919 464.001C760.136 464.001 762.263 463.129 763.831 461.576C765.399 460.024 766.28 457.918 766.28 455.722C766.28 453.527 765.399 451.421 763.831 449.868C762.263 448.316 760.136 447.443 757.919 447.443V447.443Z" fill="white"/>
<path d="M757.919 478.011L557.236 478.011C555.018 478.011 552.892 478.883 551.323 480.436C549.755 481.989 548.874 484.094 548.874 486.29C548.874 488.486 549.755 490.591 551.323 492.144C552.892 493.696 555.018 494.569 557.236 494.569L757.919 494.569C760.136 494.569 762.263 493.696 763.831 492.144C765.399 490.591 766.28 488.486 766.28 486.29C766.28 484.094 765.399 481.989 763.831 480.436C762.263 478.883 760.136 478.011 757.919 478.011V478.011Z" fill="white"/>
<path d="M524.805 403.184L433.456 403.184C431.497 403.186 429.618 403.958 428.233 405.33C426.847 406.701 426.068 408.561 426.066 410.501L426.066 439.279L427.352 439.279L427.352 410.501C427.354 408.899 427.998 407.363 429.143 406.23C430.287 405.098 431.838 404.46 433.456 404.458L524.805 404.458C526.424 404.459 527.976 405.096 529.12 406.229C530.264 407.362 530.908 408.899 530.909 410.501L530.909 500.943C530.908 502.546 530.264 504.082 529.12 505.215C527.976 506.348 526.424 506.985 524.805 506.987L499.482 506.987L499.482 508.26L524.805 508.26C526.765 508.259 528.644 507.488 530.03 506.116C531.415 504.744 532.194 502.884 532.196 500.943L532.196 410.501C532.194 408.561 531.415 406.7 530.03 405.329C528.644 403.957 526.765 403.185 524.805 403.184V403.184Z" fill="#CCCCCC"/>
<path d="M287.938 496.236C287.615 496.249 273.845 495.303 273.494 495.292L274.731 483.066L282.574 482.832L297.561 455.35C295.482 451.426 298.04 446.219 302.449 445.416C311.335 443.417 314.387 457.257 305.474 459.099L293.078 492.681C292.689 493.721 291.989 494.619 291.07 495.254C290.152 495.89 289.059 496.232 287.938 496.236V496.236Z" fill="#FFB8B8"/>
<path d="M251.636 502.532C238.533 502.564 237.382 482.958 250.515 481.576C285.241 479.499 280.846 470.864 283.484 496.335C283.565 497.09 283.339 497.847 282.858 498.438C282.376 499.03 281.677 499.408 280.914 499.489L252.773 502.472C252.396 502.512 252.016 502.532 251.636 502.532V502.532Z" fill="#6C63FF"/>
<path d="M248.645 440.543C266.697 450.713 251.877 477.547 233.49 467.992C215.439 457.822 230.258 430.989 248.645 440.543Z" fill="#FFB8B8"/>
<path d="M265.056 671.526L272.942 671.525L276.693 641.411L265.055 641.411L265.056 671.526Z" fill="#FFB8B8"/>
<path d="M263.367 678.775L288.15 678.774C288.056 666.114 271.479 669.762 263.366 669.295L263.367 678.775Z" fill="#2F2E41"/>
<path d="M230.966 671.526L238.851 671.525L242.603 641.411L230.965 641.411L230.966 671.526Z" fill="#FFB8B8"/>
<path d="M229.276 678.775L254.06 678.774C253.965 666.114 237.389 669.762 229.276 669.295L229.276 678.775Z" fill="#2F2E41"/>
<path d="M239.928 661.008C238.022 660.491 227.666 662.057 226.444 660.001C222.175 617.645 223.124 576.193 232.599 553.415L265.177 551.441C272.462 564.607 289.207 651.979 279.106 657.292L266.117 657.75C265.376 657.774 264.649 657.545 264.059 657.102C263.469 656.658 263.051 656.027 262.875 655.314L252.008 594.104C249.302 590.358 243.983 658.566 243.104 658.311C242.99 659.063 242.606 659.749 242.023 660.245C241.44 660.74 240.696 661.011 239.928 661.008V661.008Z" fill="#2F2E41"/>
<path d="M231.564 558.769C215.116 541.732 225.608 496.055 225.077 497.027C225.122 495.908 228.847 478.676 238.484 475.848C246.13 473.35 254.593 480.823 255.636 488.381L267.09 555.345C267.149 555.71 267.121 556.083 267.007 556.435C266.894 556.787 266.699 557.107 266.438 557.37C267.001 559.107 232.37 558.421 231.564 558.769Z" fill="#6C63FF"/>
<path d="M236.902 452.527C238.347 451.623 239.059 450.073 239.9 448.66C244.328 446.161 249.42 452.207 254.104 449.95C267.349 437.361 253.734 433.647 241.535 432.983C238.653 432.631 236.202 433.643 234.023 435.315C209.654 433.472 221.341 465.553 236.721 469.791C239.436 470.968 241.473 468.585 239.079 466.418C235.765 462.979 231.661 456.057 236.902 452.527Z" fill="#2F2E41"/>
<path d="M489.834 438.006L313.593 438.006C310.695 438.01 307.916 439.152 305.866 441.181C303.816 443.21 302.663 445.962 302.659 448.832L302.659 669.174C302.663 672.044 303.816 674.795 305.866 676.825C307.916 678.854 310.695 679.996 313.593 680L489.834 680C492.733 679.996 495.511 678.854 497.561 676.825C499.611 674.795 500.764 672.044 500.768 669.174L500.768 448.832C500.764 445.962 499.611 443.21 497.561 441.181C495.511 439.152 492.733 438.01 489.834 438.006V438.006ZM499.482 669.174C499.479 671.706 498.461 674.134 496.653 675.925C494.844 677.716 492.392 678.723 489.834 678.726L313.593 678.726C311.036 678.723 308.583 677.716 306.775 675.925C304.966 674.134 303.948 671.706 303.945 669.174L303.945 448.832C303.948 446.299 304.966 443.871 306.775 442.081C308.583 440.29 311.036 439.282 313.593 439.279L489.834 439.279C492.392 439.282 494.844 440.29 496.653 442.081C498.461 443.871 499.479 446.299 499.482 448.832L499.482 669.174Z" fill="#3F3D56"/>
<path d="M263.936 530.726C258.127 531.378 255.577 517.995 253.356 514.585L264.924 510.138L268.688 516.954L300.224 517.73C300.411 517.478 300.616 517.24 300.836 517.016V517.016C307.091 510.533 317.275 520.247 311.045 526.717C310.358 527.44 309.523 528.011 308.597 528.391C307.67 528.772 306.673 528.954 305.671 528.925C304.668 528.896 303.683 528.658 302.78 528.225C301.878 527.792 301.078 527.174 300.434 526.413C299.655 526.468 264.697 530.747 263.936 530.726Z" fill="#FFB8B8"/>
<path d="M255.369 524.338C253.435 526.183 238.587 500.283 237.502 499.551C230 488.005 247.662 476.606 255.294 488.089L270.729 511.575C271.147 512.212 271.293 512.987 271.134 513.731C270.975 514.474 270.525 515.124 269.882 515.539C269.179 515.866 255.865 525.039 255.369 524.338Z" fill="#6C63FF"/>
<path d="M455.101 590.526L348.327 590.526C337.42 590.474 337.375 574.025 348.328 573.968L455.101 573.968C466 574.019 466.059 590.469 455.101 590.526Z" fill="#CCCCCC"/>
<path d="M455.101 621.094L348.327 621.094C337.42 621.041 337.375 604.592 348.328 604.536L455.101 604.536C466 604.587 466.059 621.037 455.101 621.094Z" fill="#CCCCCC"/>
<path d="M455.101 651.661L348.327 651.661C337.42 651.609 337.375 635.16 348.328 635.104L455.101 635.104C466 635.154 466.059 651.605 455.101 651.661Z" fill="#CCCCCC"/>
<path d="M494.979 458.384C491.672 458.384 488.439 457.413 485.688 455.594C482.938 453.774 480.795 451.188 479.529 448.163C478.263 445.137 477.932 441.808 478.577 438.596C479.222 435.385 480.815 432.434 483.154 430.119C485.493 427.803 488.473 426.226 491.717 425.587C494.961 424.948 498.323 425.276 501.379 426.53C504.435 427.783 507.047 429.905 508.885 432.628C510.722 435.351 511.703 438.552 511.703 441.827C511.698 446.216 509.934 450.425 506.799 453.529C503.664 456.633 499.413 458.379 494.979 458.384V458.384Z" fill="#6C63FF"/>
<path d="M502.698 441.19L495.623 441.19L495.623 433.23C495.623 433.061 495.555 432.899 495.434 432.779C495.314 432.66 495.15 432.593 494.979 432.593C494.809 432.593 494.645 432.66 494.525 432.779C494.404 432.899 494.336 433.061 494.336 433.23L494.336 441.19L487.261 441.19C487.09 441.19 486.927 441.257 486.806 441.376C486.685 441.496 486.618 441.658 486.618 441.827C486.618 441.996 486.685 442.158 486.806 442.277C486.927 442.396 487.09 442.464 487.261 442.464L494.336 442.464L494.336 450.424C494.336 450.593 494.404 450.755 494.525 450.874C494.645 450.994 494.809 451.061 494.979 451.061C495.15 451.061 495.314 450.994 495.434 450.874C495.555 450.755 495.623 450.593 495.623 450.424L495.623 442.464L502.698 442.464C502.869 442.464 503.032 442.396 503.153 442.277C503.273 442.158 503.341 441.996 503.341 441.827C503.341 441.658 503.273 441.496 503.153 441.376C503.032 441.257 502.869 441.19 502.698 441.19Z" fill="white"/>
<path d="M453.171 554.099L350.257 554.099C347.443 554.096 344.745 552.988 342.756 551.018C340.766 549.048 339.647 546.377 339.644 543.591L339.644 486.532C339.647 483.746 340.766 481.075 342.756 479.106C344.745 477.136 347.443 476.028 350.257 476.024L453.171 476.024C455.984 476.028 458.682 477.136 460.672 479.106C462.661 481.075 463.781 483.746 463.784 486.532L463.784 543.591C463.781 546.377 462.661 549.048 460.672 551.018C458.682 552.988 455.984 554.096 453.171 554.099Z" fill="#6C63FF"/>
</g>
<circle cx="501.5" cy="281.5" r="12.5" fill="#00B65B"/>
<path d="M607.762 763.562C606.934 763.604 606.298 764.309 606.339 765.136C606.381 765.964 607.086 766.6 607.913 766.559L607.762 763.562ZM672.318 712.079L673.809 712.243L672.318 712.079ZM689.457 607.891C688.751 607.458 687.827 607.679 687.394 608.385L680.333 619.892C679.9 620.598 680.121 621.521 680.827 621.955C681.533 622.388 682.457 622.167 682.89 621.461L689.167 611.233L699.394 617.509C700.101 617.942 701.024 617.721 701.457 617.015C701.891 616.309 701.67 615.385 700.963 614.952L689.457 607.891ZM607.913 766.559C617.942 766.052 633.219 762.754 646.588 754.474C660.002 746.166 671.546 732.799 673.809 712.243L670.827 711.915C668.686 731.361 657.819 743.989 645.008 751.923C632.153 759.885 617.391 763.076 607.762 763.562L607.913 766.559ZM673.809 712.243C675.214 699.479 672.792 690.133 668.312 683.73C663.831 677.325 657.393 674.015 651.078 673.157C644.802 672.305 638.526 673.863 634.365 677.359C632.27 679.118 630.701 681.382 629.989 684.069C629.276 686.76 629.449 689.775 630.675 692.987L633.478 691.917C632.447 689.216 632.357 686.846 632.889 684.837C633.423 682.824 634.609 681.072 636.294 679.656C639.692 676.802 645.073 675.369 650.674 676.13C656.236 676.885 661.895 679.791 665.854 685.45C669.815 691.111 672.174 699.676 670.827 711.915L673.809 712.243ZM630.675 692.987C633.179 699.548 639.956 704.006 647.947 705.457C655.986 706.916 665.502 705.401 673.895 699.76C690.788 688.408 702.588 660.845 690.131 608.821L687.214 609.519C699.552 661.05 687.569 686.956 672.222 697.27C664.496 702.462 655.777 703.829 648.483 702.505C641.143 701.173 635.488 697.183 633.478 691.917L630.675 692.987Z" fill="#23A6F0"/>
<circle cx="191" cy="403" r="13" fill="#FFC700"/>
<path d="M292.213 403.028C292.969 403.367 293.856 403.028 294.195 402.272L299.71 389.95C300.048 389.194 299.71 388.306 298.954 387.968C298.197 387.63 297.31 387.968 296.972 388.724L292.069 399.677L281.116 394.775C280.36 394.436 279.473 394.775 279.134 395.531C278.796 396.287 279.135 397.175 279.891 397.513L292.213 403.028ZM369.733 231.058C370.487 230.714 370.819 229.825 370.475 229.071C370.132 228.317 369.242 227.985 368.488 228.328L369.733 231.058ZM294.227 401.124C286.888 381.893 281.834 350.251 290.579 317.996C299.304 285.815 321.789 252.918 369.733 231.058L368.488 228.328C319.731 250.559 296.642 284.17 287.683 317.211C278.745 350.179 283.899 382.475 291.424 402.194L294.227 401.124Z" fill="#23A6F0"/>
<rect x="742.958" y="539" width="18.5125" height="18.5125" transform="rotate(44.4221 742.958 539)" fill="#FF782D"/>
<path fill-rule="evenodd" clip-rule="evenodd" d="M532.145 600C532.14 600.18 532.137 600.36 532.137 600.54C532.137 600.359 532.134 600.179 532.129 600L532.145 600ZM513.556 619.137C513.37 619.137 513.185 619.134 513 619.129C513 619.134 513 619.139 513.001 619.145C513.185 619.139 513.37 619.137 513.556 619.137ZM532.128 637.145C532.134 637.145 532.14 637.145 532.146 637.145C532.442 627.338 540.338 619.442 550.145 619.145L550.145 619.128C540.154 618.826 532.145 610.635 532.137 600.572C532.128 610.825 523.815 619.135 513.56 619.137C523.629 619.139 531.826 627.149 532.128 637.145Z" fill="#1A21BC"/>
<defs>
<clipPath id="clip0">
<rect width="577" height="386" fill="white" transform="translate(220 294)"/>
</clipPath>
</defs>
</svg>
